<svg id="logo-kiomed-pharma" xmlns="http://www.w3.org/2000/svg" xmlns:xlink="http://www.w3.org/1999/xlink" viewBox="0 0 464.76 311.97"><defs><style>.cls-1{fill:none;}.cls-2{clip-path:url(#clip-path);}.cls-3{fill:url(#Dégradé_sans_nom_3);}.cls-4{clip-path:url(#clip-path-2);}.cls-5{fill:url(#Dégradé_sans_nom_4);}.cls-6{clip-path:url(#clip-path-3);}.cls-7{fill:#646a6e;}</style><clipPath id="clip-path"><path class="cls-1" d="M241.67,153.49h0c10.57-5.4,19.43,6.39,31.69,18.16S301,195.05,324.88,190c14.16-3.28,28.74-22.95,31.2-35.34v0c-12.51-8.3-26-20.21-50.49-20.21-15.82,0-36.22,5-63.92,19.11"/></clipPath><linearGradient id="Dégradé_sans_nom_3" x1="-92.34" y1="626.4" x2="-89.06" y2="626.4" gradientTransform="matrix(50.44, 0, 0, -50.44, 4895.61, 31758.16)" gradientUnits="userSpaceOnUse"><stop offset="0" stop-color="#2d8e32"/><stop offset="0.06" stop-color="#2d8e32"/><stop offset="0.13" stop-color="#4f9e28"/><stop offset="0.21" stop-color="#71ae1e"/><stop offset="0.3" stop-color="#8cba15"/><stop offset="0.39" stop-color="#a0c310"/><stop offset="0.48" stop-color="#abc80c"/><stop offset="0.57" stop-color="#afca0b"/><stop offset="1" stop-color="#afca0b"/></linearGradient><clipPath id="clip-path-2"><path class="cls-1" d="M358.5,155c-2.1,10.65-13.2,26.71-25.28,33.07a24.51,24.51,0,0,1-5.92,2.27c17-2.74,45.69-16.89,53.76-21.23C482,114.92,414.6,21.45,459.63,1.78A38.1,38.1,0,0,1,464.76,0C313.83,40.59,374.08,95.67,358.5,155"/></clipPath><linearGradient id="Dégradé_sans_nom_4" x1="-92.8" y1="619.35" x2="-89.52" y2="619.35" gradientTransform="matrix(74.96, 0, 0, -74.96, 7266.36, 46523.18)" gradientUnits="userSpaceOnUse"><stop offset="0" stop-color="#00869c"/><stop offset="0.28" stop-color="#00b0d0"/><stop offset="0.3" stop-color="#00b4d5"/><stop offset="0.36" stop-color="#16bad9"/><stop offset="0.68" stop-color="#81d8ec"/><stop offset="0.9" stop-color="#c5ebf8"/><stop offset="1" stop-color="#dff2fd"/></linearGradient><clipPath id="clip-path-3"><rect class="cls-1" width="464.76" height="311.97"/></clipPath></defs><g class="cls-2"><rect class="cls-3" x="241.67" y="134.38" width="114.41" height="60.67"/></g><g class="cls-4"><rect class="cls-5" x="285.41" y="-9.2" width="224.96" height="208.71" transform="translate(210.44 458.8) rotate(-76.18)"/></g><g class="cls-6"><path class="cls-7" d="M315.3,291.17c4.78,0,7.63,2.44,7.63,6.51s-2.85,6.5-7.63,6.5h-4.22V312h-1.69v-20.8Zm0,11.38c3.8,0,5.88-1.87,5.88-4.87,0-3.18-2.29-4.87-5.88-4.87h-4.22v9.74Z"/><polygon class="cls-7" points="343.08 291.17 343.08 311.97 341.36 311.97 341.36 301.93 329 301.93 329 311.97 327.3 311.97 327.3 291.17 329 291.17 329 300.29 341.36 300.29 341.36 291.17 343.08 291.17"/><path class="cls-7" d="M362.49,305.91h-11L348.88,312H347l9.24-20.8h1.52L367,312h-1.87Zm-.69-1.52L358,295.63c-.45-1.07-.92-2.41-1-2.41h0s-.51,1.34-.95,2.41l-3.83,8.76Z"/><path class="cls-7" d="M383.19,312l-5-8.11a10.47,10.47,0,0,1-1.39.09h-4.22v8h-1.7v-20.8h5.92c4.75,0,7.63,2.47,7.63,6.42a5.83,5.83,0,0,1-4.51,5.94l5.17,8.44Zm-6.26-9.54c3.77,0,5.79-2,5.79-4.84,0-3.06-2.23-4.78-5.79-4.78h-4.31v9.62Z"/><path class="cls-7" d="M408.78,291.17V312h-1.7V301.42c0-2.73.16-7.31.13-7.31h0s-.92,1.61-1.78,3.15l-5.53,9.6H399l-5.53-9.6c-.87-1.54-1.75-3.15-1.79-3.15h0s.12,4.58.12,7.31V312H390v-20.8h1.6l5.5,9.48c1.87,3.18,2.23,4.1,2.26,4.1h0s.39-.92,2.26-4.1l5.49-9.48Z"/><path class="cls-7" d="M428.18,305.91h-11L414.58,312H412.7l9.24-20.8h1.52L432.7,312h-1.87Zm-.68-1.52-3.83-8.76c-.45-1.07-.93-2.41-.95-2.41h0s-.51,1.34-1,2.41l-3.83,8.76Z"/><path class="cls-7" d="M338.41,214.13c17.89,0,26.95,1.86,26.95,23.72,0,11.06-6,16.15-17.88,16.15H324c0,13.16,4,15,13.42,15,10.56,0,17.39.12,26.7-1.37v10.06c-9.56,3.23-22.48,3.48-32.79,3.48-16.77,0-21.73-9.07-21.73-33.91,0-28.69,8.19-33.16,28.81-33.16m6.21,28.56c4.35,0,6.34-1.86,6.34-5.34,0-10.06-1.62-11.42-11.8-11.42-10.93,0-15.16.37-15.16,16.76Z"/><path class="cls-7" d="M417.26,187.9v36.74l-.27.07c-2.17-5.53-6.92-8.68-14.56-9.61,0,0-.78,0-1.36,0-20.75.28-28,7.89-28,33.7,0,22.71,6.88,31.46,28.3,31.71h.88c7.86-.91,13.12-4.54,15.72-11l.26.06-.54,10.38h15v-92Zm-2.66,76.65q-2.6,4-11.9,4l-.69,0h0c-10.16,0-14.83-1.49-14.83-19.75,0-19.45,3.5-21.73,14.36-21.83v0l.89,0q9,0,11.89,3.71t2.87,15.57q0,14.35-2.59,18.34"/><path class="cls-7" d="M282.49,214.74c-9.5,0-15,3.87-21,7.85-1.23.74-2.19,1.36-3,1.89-2.78-5.79-8.14-9.74-17-9.74-9.78,0-15.33,4.1-21.49,8.2l-3.13-7.12H206v64.09h14V232.6c6.52-4,10.62-6,18.47-6,5,0,8.45,2.89,8.45,9.77v43.57H261V232.6c6.52-4,10.62-6,18.47-6,4.95,0,8.45,2.89,8.45,9.77v43.57h14V236.46c0-11.58-5.19-21.72-19.43-21.72"/><polygon class="cls-7" points="17.48 187.89 17.48 225.41 25.71 225.41 56.34 187.89 78.08 187.89 40.89 232.63 81.99 280 59.58 280 25.85 240.12 17.48 240.12 17.48 280 0 280 0 187.89 17.48 187.89"/><rect class="cls-7" x="89.07" y="187.89" width="17.48" height="17.49"/><rect class="cls-7" x="89.07" y="215.94" width="17.48" height="64.06"/><path class="cls-7" d="M158.79,187.08q25.11,0,32.33,8.34t7.21,37.28q0,31.65-7.25,39.88T156,280.81q-25.11,0-32.46-8.13t-7.35-35.8q0-32.92,7.22-41.36t35.42-8.44m-1.35,15q-17.61,0-20.58,4.53t-3,31.31q0,19.83,3.48,23.88t20.48,4.05q16.26,0,19.5-4.55t3.24-27.64q0-23.14-3.07-27.36t-20.08-4.22"/></g></svg>